<?xml version="1.0" standalone="no"?>
<!DOCTYPE svg PUBLIC "-//W3C//DTD SVG 20010904//EN"
 "http://www.w3.org/TR/2001/REC-SVG-20010904/DTD/svg10.dtd">
<svg version="1.0" xmlns="http://www.w3.org/2000/svg"
 width="500.000000pt" height="500.000000pt" viewBox="0 0 500.000000 500.000000"
 preserveAspectRatio="xMidYMid meet">

<g transform="translate(0.000000,500.000000) scale(0.100000,-0.100000)"
fill="#000000" stroke="none">
<path d="M1370 2675 l0 -508 278 6 c378 7 457 28 570 152 78 85 112 193 112
354 -1 261 -106 415 -327 478 -46 12 -120 17 -345 20 l-288 5 0 -507z m540
245 c78 -40 106 -119 98 -279 -6 -114 -28 -167 -85 -202 -31 -19 -55 -24 -135
-27 l-98 -4 0 266 0 266 90 0 c71 0 99 -4 130 -20z"/>
<path d="M3075 2401 c-124 -56 -101 -229 33 -256 l32 -7 0 141 c0 156 2 153
-65 122z"/>
</g>
</svg>
